<mxfile host="app.diagrams.net" modified="2020-09-21T07:27:38.633Z" agent="5.0 (Windows NT 10.0; Win64; x64) AppleWebKit/537.36 (KHTML, like Gecko) Chrome/84.0.4147.135 Safari/537.36" etag="zzPYBGLq3ilPaiclLo1b" version="13.7.1" type="github">
  <diagram id="uDWWmamGiqc_AUkZqDZm" name="Page-1">
    <mxGraphModel dx="1808" dy="526" grid="1" gridSize="10" guides="1" tooltips="1" connect="1" arrows="1" fold="1" page="1" pageScale="1" pageWidth="827" pageHeight="1169" math="0" shadow="0">
      <root>
        <mxCell id="0" />
        <mxCell id="1" parent="0" />
        <mxCell id="5B5072rG3pJTITi0nGhi-37" value="" style="rounded=1;whiteSpace=wrap;html=1;absoluteArcSize=1;arcSize=14;strokeWidth=1;fillColor=none;dashed=1;" vertex="1" parent="1">
          <mxGeometry x="-430" y="145" width="380" height="270" as="geometry" />
        </mxCell>
        <mxCell id="5B5072rG3pJTITi0nGhi-45" style="edgeStyle=orthogonalEdgeStyle;rounded=0;orthogonalLoop=1;jettySize=auto;html=1;exitX=1;exitY=0.5;exitDx=0;exitDy=0;entryX=0;entryY=0.5;entryDx=0;entryDy=0;entryPerimeter=0;" edge="1" parent="1" source="5B5072rG3pJTITi0nGhi-38" target="5B5072rG3pJTITi0nGhi-44">
          <mxGeometry relative="1" as="geometry" />
        </mxCell>
        <mxCell id="5B5072rG3pJTITi0nGhi-38" value="&lt;div&gt;准备数据&lt;/div&gt;&lt;div&gt;&lt;font color=&quot;#999999&quot;&gt;is_phone/region_no/&lt;/font&gt;&lt;/div&gt;&lt;div&gt;&lt;font color=&quot;#999999&quot;&gt;account/device_id&lt;/font&gt;&lt;/div&gt;" style="rounded=1;whiteSpace=wrap;html=1;absoluteArcSize=1;arcSize=14;strokeWidth=2;fillColor=none;" vertex="1" parent="1">
          <mxGeometry x="160" y="240" width="120" height="80" as="geometry" />
        </mxCell>
        <mxCell id="5B5072rG3pJTITi0nGhi-41" style="edgeStyle=orthogonalEdgeStyle;rounded=0;orthogonalLoop=1;jettySize=auto;html=1;exitX=0.5;exitY=1;exitDx=0;exitDy=0;exitPerimeter=0;entryX=0.5;entryY=0;entryDx=0;entryDy=0;" edge="1" parent="1" source="5B5072rG3pJTITi0nGhi-40" target="5B5072rG3pJTITi0nGhi-38">
          <mxGeometry relative="1" as="geometry" />
        </mxCell>
        <mxCell id="5B5072rG3pJTITi0nGhi-40" value="拉盐开始" style="strokeWidth=2;html=1;shape=mxgraph.flowchart.terminator;whiteSpace=wrap;fillColor=none;" vertex="1" parent="1">
          <mxGeometry x="160" y="160" width="120" height="40" as="geometry" />
        </mxCell>
        <mxCell id="5B5072rG3pJTITi0nGhi-47" value="N" style="edgeStyle=orthogonalEdgeStyle;rounded=0;orthogonalLoop=1;jettySize=auto;html=1;exitX=0.5;exitY=1;exitDx=0;exitDy=0;exitPerimeter=0;entryX=1;entryY=0.5;entryDx=0;entryDy=0;" edge="1" parent="1" source="5B5072rG3pJTITi0nGhi-44" target="5B5072rG3pJTITi0nGhi-46">
          <mxGeometry x="-0.8" relative="1" as="geometry">
            <mxPoint as="offset" />
          </mxGeometry>
        </mxCell>
        <mxCell id="5B5072rG3pJTITi0nGhi-44" value="error?" style="strokeWidth=2;html=1;shape=mxgraph.flowchart.decision;whiteSpace=wrap;fillColor=none;" vertex="1" parent="1">
          <mxGeometry x="320" y="260" width="120" height="40" as="geometry" />
        </mxCell>
        <mxCell id="5B5072rG3pJTITi0nGhi-46" value="获得数据&lt;br&gt;uid/salt/svr_time/&lt;br&gt;user_attribution" style="rounded=1;whiteSpace=wrap;html=1;absoluteArcSize=1;arcSize=14;strokeWidth=2;fillColor=none;" vertex="1" parent="1">
          <mxGeometry x="160" y="360" width="120" height="80" as="geometry" />
        </mxCell>
      </root>
    </mxGraphModel>
  </diagram>
</mxfile>
